<?xml version="1.0" encoding="utf-8"?>
<!DOCTYPE svg PUBLIC "-//W3C//DTD SVG 1.1//EN" "http://www.w3.org/Graphics/SVG/1.1/DTD/svg11.dtd">
<svg version="1.1" xmlns="http://www.w3.org/2000/svg" x="0" y="0" width="24" height="24"  viewBox="0 0 24 24">
	<path
		fill="#666"
		d="M 5.3999999999999995 5.3999999999999995 L 9.36 5.3999999999999995 L 9.36 6.72 L 6.72 6.72 L 6.72 9.36 L 5.3999999999999995 9.36 L 5.3999999999999995 5.3999999999999995 M 18.6 5.3999999999999995 L 14.64 5.3999999999999995 L 14.64 6.72 L 17.28 6.72 L 17.28 9.36 L 18.6 9.36 L 18.6 5.3999999999999995 M 18.6 18.6 L 14.64 18.6 L 14.64 17.28 L 17.28 17.28 L 17.28 14.64 L 18.6 14.64 L 18.6 18.6 M 5.3999999999999995 18.6 L 9.36 18.6 L 9.36 17.28 L 6.72 17.28 L 6.72 14.64 L 5.3999999999999995 14.64 L 5.3999999999999995 18.6"/>
</svg>
